<svg xmlns="http://www.w3.org/2000/svg" width="47.95" height="47.95" viewBox="0 0 47.95 47.95">
  <path id="circle-xmark-light" d="M16.923,16.923a1.487,1.487,0,0,1,2.117,0l4.935,4.935,4.935-4.935a1.5,1.5,0,0,1,2.117,2.117l-4.935,4.935,4.935,4.935a1.5,1.5,0,0,1-2.117,2.117l-4.935-4.935L19.04,31.027a1.5,1.5,0,0,1-2.117-2.117l4.935-4.935L16.923,19.04A1.487,1.487,0,0,1,16.923,16.923ZM47.95,23.975A23.975,23.975,0,1,1,23.975,0,23.973,23.973,0,0,1,47.95,23.975ZM23.975,3A20.978,20.978,0,1,0,44.953,23.975,20.98,20.98,0,0,0,23.975,3Z" fill="#919090"/>
</svg>
