<svg xmlns="http://www.w3.org/2000/svg" xmlns:xlink="http://www.w3.org/1999/xlink" width="177.095" height="65.989" viewBox="0 0 177.095 65.989">
  <defs>
    <clipPath id="clip-path">
      <rect id="Rectangle_2645" data-name="Rectangle 2645" width="177.095" height="65.989" fill="none"/>
    </clipPath>
  </defs>
  <g id="Group_5235" data-name="Group 5235" transform="translate(0 0)">
    <g id="Group_5232" data-name="Group 5232" transform="translate(0 0)" clip-path="url(#clip-path)">
      <path id="Path_5156" data-name="Path 5156" d="M31.893,73.083l.719-1.436a5.952,5.952,0,0,0,3.3.988c1.282,0,1.953-.306,1.953-.882,0-.542-.412-.719-2.036-.86-2.66-.235-3.566-.86-3.566-2.472,0-1.577,1.341-2.507,3.613-2.507a5.968,5.968,0,0,1,3.437.954l-.659,1.388a4.888,4.888,0,0,0-2.707-.776c-1.142,0-1.813.318-1.813.859s.411.719,2.036.86c2.66.235,3.566.859,3.566,2.472,0,1.659-1.307,2.53-3.79,2.53a7.025,7.025,0,0,1-4.05-1.118" transform="translate(-3.973 -8.212)" fill="#aeb0b2"/>
      <path id="Path_5157" data-name="Path 5157" d="M61.058,67.653H58.092V74.08H56.256V67.653H53.29V66.076h7.768Z" transform="translate(-6.639 -8.232)" fill="#aeb0b2"/>
      <rect id="Rectangle_2644" data-name="Rectangle 2644" width="1.837" height="8.004" transform="translate(79.391 57.844)" fill="#aeb0b2"/>
      <path id="Path_5158" data-name="Path 5158" d="M114.391,66.076l-3.378,8H109.13l-3.378-8h1.989L110.118,72l2.366-5.92Z" transform="translate(-13.175 -8.232)" fill="#aeb0b2"/>
      <path id="Path_5159" data-name="Path 5159" d="M130.422,67.653v1.613h4.638v1.578h-4.638V72.5h5.4V74.08h-7.24v-8h7.24v1.578Z" transform="translate(-16.019 -8.232)" fill="#aeb0b2"/>
      <path id="Path_5160" data-name="Path 5160" d="M149.471,73.083l.719-1.436a5.954,5.954,0,0,0,3.3.988c1.282,0,1.953-.306,1.953-.882,0-.542-.412-.719-2.036-.86-2.66-.235-3.566-.86-3.566-2.472,0-1.577,1.341-2.507,3.613-2.507a5.964,5.964,0,0,1,3.437.954l-.659,1.388a4.887,4.887,0,0,0-2.708-.776c-1.142,0-1.812.318-1.812.859s.411.719,2.036.86c2.66.235,3.566.859,3.566,2.472,0,1.659-1.306,2.53-3.791,2.53a7.026,7.026,0,0,1-4.049-1.118" transform="translate(-18.621 -8.212)" fill="#aeb0b2"/>
      <path id="Path_5161" data-name="Path 5161" d="M8.3,40.278a8.593,8.593,0,0,1-6.2-2.132,8.082,8.082,0,0,1-2.1-5.9V.579H23.223v3.6l-.531-.1c-1.247-.227-2.5-.411-3.732-.545s-2.567-.25-3.977-.346-3.011-.164-4.728-.2c-1.636-.037-3.505-.056-5.562-.058V18.067H19.749v2.349H4.693V32.589c0,3.594,1.652,5.34,5.05,5.34H23.8v2.349ZM109.866.579h4.693v39.7h-4.693Zm21.035,39.7a8.245,8.245,0,0,1-6.039-2.132c-1.5-1.523-1.97-3.709-2.253-5.845l0-.03V.579H127.3V32.589c0,3.594,1.652,5.34,5.05,5.34h9.392l-1.03,2.349Zm36.681-11.961-7.857-20.31-7.909,20.31Zm5.811,11.961a1.631,1.631,0,0,1-1.572-1.084l-3.311-8.528H150.887l-3.306,8.514a1.637,1.637,0,0,1-1.577,1.1h-1.7L159.942.579h1.51l15.643,39.7Zm-85.459.58a16.219,16.219,0,0,1-5.884-1.016,12.4,12.4,0,0,1-7.234-7.353,20.749,20.749,0,0,1-.959-4.494c-.056-.406-.115-.82-.179-1.244l-.005-.033V.579h4.693V26.914c0,3.576.936,6.437,2.78,8.5a9.632,9.632,0,0,0,7.54,3.093,10.81,10.81,0,0,0,4.282-.833,9.5,9.5,0,0,0,3.319-2.35,10.637,10.637,0,0,0,2.137-3.668,14.318,14.318,0,0,0,.756-4.745V.579h2.639V26.973a15.936,15.936,0,0,1-.985,5.72,12.025,12.025,0,0,1-7.179,7.179,15.933,15.933,0,0,1-5.721.986M47.516,2.349a14.614,14.614,0,0,0-6.209,1.318A14.423,14.423,0,0,0,36.42,7.375a17.617,17.617,0,0,0-3.216,5.7,22.013,22.013,0,0,0-1.163,7.293A22.266,22.266,0,0,0,33.2,27.693a17.907,17.907,0,0,0,3.218,5.763,14.255,14.255,0,0,0,4.885,3.734,14.59,14.59,0,0,0,6.209,1.319A14.781,14.781,0,0,0,52.987,37.5l-5-7.273h3.52a1.963,1.963,0,0,1,1.706.895l3.095,4.507a14.453,14.453,0,0,0,2.3-2.174,17.925,17.925,0,0,0,3.219-5.763,22.285,22.285,0,0,0,1.163-7.322,22.054,22.054,0,0,0-1.162-7.293,17.669,17.669,0,0,0-3.218-5.7,14.437,14.437,0,0,0-4.886-3.707,14.618,14.618,0,0,0-6.208-1.318M66.8,47.517a20.655,20.655,0,0,1-3.524-.267,9.241,9.241,0,0,1-2.831-.975A10.386,10.386,0,0,1,58.021,44.4a20.612,20.612,0,0,1-2.31-2.931l-1.182-1.721a21.733,21.733,0,0,1-7.013,1.111,21.3,21.3,0,0,1-8.164-1.54A19.344,19.344,0,0,1,28.626,28.592a21.285,21.285,0,0,1-1.54-8.163,21.5,21.5,0,0,1,1.54-8.191A19.3,19.3,0,0,1,32.9,5.776,19.926,19.926,0,0,1,39.352,1.54,21.286,21.286,0,0,1,47.516,0a21.514,21.514,0,0,1,8.19,1.539,19.006,19.006,0,0,1,10.7,10.7,21.508,21.508,0,0,1,1.539,8.191,21.278,21.278,0,0,1-1.54,8.163,19.671,19.671,0,0,1-4.267,6.458,19.248,19.248,0,0,1-4.088,3.109l1.767,2.572a12.978,12.978,0,0,0,3.461,3.7,6.978,6.978,0,0,0,3.762,1.029h.5v2.059Z" transform="translate(0 0)" fill="#fff"/>
    </g>
  </g>
</svg>
